<svg width="49" height="48" viewBox="0 0 49 48" fill="none" xmlns="http://www.w3.org/2000/svg">
<g clip-path="url(#clip0_965_134)">
<path d="M16.0647 33.9973C15.2537 33.1826 15.6765 33.4123 13.7202 32.8864C12.8326 32.6473 12.0523 32.1879 11.3467 31.6376L7.11218 42.0664C6.70245 43.0761 7.46778 44.1729 8.55232 44.1317L13.4701 43.9432L16.8525 47.532C17.5991 48.3232 18.9095 48.0767 19.3193 47.067L24.1773 35.1026C23.1655 35.6689 22.0427 36.0007 20.8817 36.0007C19.0617 36.0007 17.3518 35.2892 16.0647 33.9973V33.9973ZM42.7282 42.0664L38.4937 31.6376C37.7881 32.1889 37.0078 32.6473 36.1202 32.8864C34.1537 33.4151 34.5849 33.1845 33.7757 33.9973C32.4886 35.2892 30.7778 36.0007 28.9578 36.0007C27.7967 36.0007 26.6739 35.6679 25.6622 35.1026L30.5202 47.067C30.9299 48.0767 32.2413 48.3232 32.987 47.532L36.3703 43.9432L41.2881 44.1317C42.3726 44.1729 43.1379 43.0751 42.7282 42.0664V42.0664ZM31.5469 31.8758C32.973 30.4179 33.1363 30.5436 35.1673 29.9876C36.4637 29.6323 37.4773 28.5964 37.8245 27.2708C38.5226 24.6083 38.3415 24.9298 40.2465 22.9817C41.1957 22.0114 41.5662 20.5967 41.219 19.2711C40.5218 16.6104 40.5209 16.9817 41.219 14.3183C41.5662 12.9926 41.1957 11.5779 40.2465 10.6076C38.3415 8.6595 38.5226 8.98013 37.8245 6.31857C37.4773 4.99294 36.4637 3.95701 35.1673 3.60169C32.5651 2.88826 32.8787 3.07482 30.9719 1.12576C30.0227 0.155443 28.6386 -0.224244 27.3422 0.131068C24.741 0.843568 25.1041 0.844506 22.4982 0.131068C21.2018 -0.224244 19.8177 0.154506 18.8685 1.12576C16.9635 3.07388 17.2771 2.88826 14.6741 3.60169C13.3777 3.95701 12.3641 4.99294 12.0169 6.31857C11.3197 8.98013 11.4998 8.6595 9.59485 10.6076C8.64565 11.5779 8.27418 12.9926 8.62232 14.3183C9.31952 16.977 9.32045 16.6058 8.62232 19.2701C8.27512 20.5958 8.64565 22.0104 9.59485 22.9817C11.4998 24.9298 11.3187 24.6083 12.0169 27.2708C12.3641 28.5964 13.3777 29.6323 14.6741 29.9876C16.7629 30.5595 16.9187 30.4695 18.2935 31.8758C19.5283 33.1386 21.4519 33.3645 22.9359 32.4214C23.5293 32.043 24.2177 31.842 24.9207 31.842C25.6236 31.842 26.312 32.043 26.9054 32.4214C28.3885 33.3645 30.3121 33.1386 31.5469 31.8758ZM16.1151 16.497C16.1151 11.5254 20.0575 7.49513 24.9202 7.49513C29.7829 7.49513 33.7253 11.5254 33.7253 16.497C33.7253 21.4686 29.7829 25.4989 24.9202 25.4989C20.0575 25.4989 16.1151 21.4686 16.1151 16.497V16.497Z" fill="#0D5C63"/>
</g>
<defs>
<clipPath id="clip0_965_134">
<rect width="35.84" height="48" fill="white" transform="translate(7)"/>
</clipPath>
</defs>
</svg>
