<svg width="49" height="48" viewBox="0 0 49 48" fill="none" xmlns="http://www.w3.org/2000/svg">
<g clip-path="url(#clip0_965_127)">
<path d="M44.0881 22.1872C43.5126 22.1914 42.9425 22.3012 42.4053 22.5114L36.665 17.7267C36.8062 17.2051 36.9067 16.664 36.9067 16.0936C36.9067 12.7153 34.2401 10 30.9223 10C27.6045 10 24.9378 12.7153 24.9378 16.0936C24.9378 17.0588 25.1772 17.9583 25.565 18.7675L18.6015 27.1474C18.3227 27.0943 18.04 27.0658 17.7565 27.0621C17.328 27.0621 16.9234 27.1352 16.5309 27.2425L10.3956 20.9953C10.5033 20.598 10.5751 20.1861 10.5751 19.7498C10.5751 17.0491 8.43988 14.8749 5.78756 14.8749C3.13525 14.8749 1 17.0491 1 19.7498C1 22.4505 3.13525 24.6247 5.78756 24.6247C6.21605 24.6247 6.6206 24.5515 7.01318 24.4443L13.1484 30.6915C13.0334 31.0964 12.973 31.5154 12.9689 31.937C12.9689 34.6377 15.1042 36.8119 17.7565 36.8119C20.4088 36.8119 22.544 34.6377 22.544 31.937C22.544 31.3593 22.4291 30.8158 22.2496 30.3015L29.2227 21.9118C29.7661 22.0727 30.3286 22.1872 30.9223 22.1872C31.867 22.1819 32.7968 21.9471 33.6344 21.5023L39.3771 26.287C39.3321 26.543 39.3065 26.8021 39.3005 27.0621C39.3005 29.7628 41.4358 31.937 44.0881 31.937C46.7404 31.937 48.8756 29.7628 48.8756 27.0621C48.8756 24.3614 46.7404 22.1872 44.0881 22.1872Z" fill="#0D5C63"/>
</g>
<defs>
<clipPath id="clip0_965_127">
<rect width="48" height="48" fill="white" transform="translate(0.5)"/>
</clipPath>
</defs>
</svg>
