<svg width="49" height="48" viewBox="0 0 49 48" fill="none" xmlns="http://www.w3.org/2000/svg">
<g clip-path="url(#clip0_965_141)">
<g clip-path="url(#clip1_965_141)">
<path d="M43.2468 12.4494H38.1772V7.37975C38.1772 6.48338 37.8211 5.62373 37.1873 4.9899C36.5535 4.35608 35.6938 4 34.7975 4H14.519C13.6226 4 12.763 4.35608 12.1291 4.9899C11.4953 5.62373 11.1392 6.48338 11.1392 7.37975V12.4494H6.06962C4.72507 12.4494 3.4356 12.9835 2.48486 13.9342C1.53412 14.885 1 16.1744 1 17.519V41.1772C1 42.0736 1.35608 42.9332 1.9899 43.5671C2.62373 44.2009 3.48338 44.557 4.37975 44.557H44.9367C45.8331 44.557 46.6927 44.2009 47.3265 43.5671C47.9604 42.9332 48.3165 42.0736 48.3165 41.1772V17.519C48.3165 16.1744 47.7823 14.885 46.8316 13.9342C45.8809 12.9835 44.5914 12.4494 43.2468 12.4494ZM14.519 7.37975H34.7975V12.4494H14.519V7.37975ZM44.9367 41.1772H4.37975V25.9684H17.8987V34.4177H31.4177V25.9684H44.9367V41.1772ZM21.2785 25.9684H28.038V31.038H21.2785V25.9684ZM4.37975 22.5886V17.519C4.37975 17.0708 4.55779 16.641 4.8747 16.3241C5.19161 16.0072 5.62144 15.8291 6.06962 15.8291H43.2468C43.695 15.8291 44.1248 16.0072 44.4418 16.3241C44.7587 16.641 44.9367 17.0708 44.9367 17.519V22.5886H4.37975Z" fill="#0D5C63"/>
</g>
</g>
<defs>
<clipPath id="clip0_965_141">
<rect width="48" height="48" fill="white" transform="translate(0.5)"/>
</clipPath>
<clipPath id="clip1_965_141">
<rect width="48" height="40.7089" fill="white" transform="translate(1 4)"/>
</clipPath>
</defs>
</svg>
