<svg width="73" height="72" viewBox="0 0 73 72" fill="none" xmlns="http://www.w3.org/2000/svg">
<g clip-path="url(#clip0_964_17595)">
<path d="M56.7357 38.9947C56.3842 38.6426 55.9667 38.3632 55.5071 38.1726C55.0475 37.982 54.5548 37.8839 54.0573 37.8839C53.5597 37.8839 53.0671 37.982 52.6075 38.1726C52.1479 38.3632 51.7304 38.6426 51.3789 38.9947L45.3402 45.0334C42.5406 44.1999 37.3164 42.3057 34.0053 38.9947C30.6943 35.6836 28.8001 30.4594 27.9666 27.6598L34.0053 21.6211C34.3574 21.2696 34.6368 20.8521 34.8274 20.3925C35.018 19.9329 35.1161 19.4403 35.1161 18.9427C35.1161 18.4452 35.018 17.9525 34.8274 17.4929C34.6368 17.0333 34.3574 16.6159 34.0053 16.2643L18.8517 1.11076C18.5002 0.758646 18.0827 0.479298 17.6231 0.288701C17.1635 0.0981045 16.6709 0 16.1733 0C15.6758 0 15.1831 0.0981045 14.7235 0.288701C14.264 0.479298 13.8465 0.758646 13.4949 1.11076L3.22082 11.3849C1.78123 12.8245 0.970513 14.802 1.00082 16.8212C1.08795 22.2159 2.51618 40.9533 17.2833 55.7204C32.0505 70.4876 50.7879 71.912 56.1864 72.003H56.2924C58.2927 72.003 60.1831 71.215 61.6151 69.783L71.8892 59.5088C72.2414 59.1573 72.5207 58.7398 72.7113 58.2802C72.9019 57.8207 73 57.328 73 56.8304C73 56.3329 72.9019 55.8402 72.7113 55.3807C72.5207 54.9211 72.2414 54.5036 71.8892 54.1521L56.7357 38.9947ZM56.2545 64.4224C51.5266 64.3428 35.3502 63.0737 22.6401 50.3599C9.88839 37.6081 8.65338 21.3749 8.57761 16.7417L16.1733 9.14594L25.9701 18.9427L21.0717 23.8411C20.6264 24.2861 20.2991 24.835 20.1191 25.4382C19.9392 26.0414 19.9125 26.68 20.0413 27.2961C20.1322 27.7318 22.356 38.0627 28.6447 44.3515C34.9335 50.6402 45.2644 52.864 45.7001 52.9549C46.3159 53.0874 46.9551 53.0627 47.5588 52.8833C48.1626 52.7039 48.7116 52.3755 49.1551 51.9283L54.0573 47.0299L63.8541 56.8267L56.2545 64.4224Z" fill="#0D5C63"/>
</g>
<defs>
<clipPath id="clip0_964_17595">
<rect width="72" height="72" fill="white" transform="translate(0.5)"/>
</clipPath>
</defs>
</svg>
